<svg width="60" height="60" viewBox="0 0 60 60" fill="none" xmlns="http://www.w3.org/2000/svg">
<path d="M32.0012 43C32.1262 42.5 32.1262 41.875 32.1262 41.25C32.1262 40.625 32.1262 40.125 32.0012 39.5L35.5012 37C35.8762 36.75 36.0012 36.25 35.7512 35.875L32.3762 30.125C32.1262 29.75 31.7512 29.625 31.3762 29.75L27.5012 31.625C26.6262 30.875 25.6262 30.375 24.5012 29.875L24.1262 25.625C24.1262 25.25 23.7512 24.875 23.3762 24.875H16.7512C16.3762 24.875 16.0012 25.25 16.0012 25.625L15.5012 30C14.3762 30.375 13.5012 31 12.5012 31.75L8.62616 30C8.25116 29.875 7.75116 30 7.62616 30.375L4.25116 36.125C4.00116 36.5 4.12616 37 4.50116 37.25L8.00116 39.75C7.87616 40.25 7.87616 40.875 7.87616 41.5C7.87616 42.125 7.87616 42.625 8.00116 43.25L4.50116 45.75C4.12616 46 4.00116 46.5 4.25116 46.875L7.62616 52.625C7.87616 53 8.25116 53.125 8.62616 53L12.5012 51.25C13.3762 52 14.3762 52.5 15.5012 53L15.8762 57.25C15.8762 57.625 16.2512 58 16.6262 58H23.2512C23.6262 58 24.0012 57.625 24.0012 57.25L24.3762 53C25.5012 52.625 26.3762 52 27.3762 51.25L31.2512 53C31.6262 53.125 32.1262 53 32.2512 52.625L35.6262 46.875C35.8762 46.5 35.7512 46 35.3762 45.75L32.0012 43ZM20.0012 47.5C16.5012 47.5 13.7512 44.75 13.7512 41.25C13.7512 37.75 16.5012 35 20.0012 35C23.5012 35 26.2512 37.75 26.2512 41.25C26.2512 44.75 23.5012 47.5 20.0012 47.5Z" fill="#7D2166"/>
<path d="M52.3762 19.125C52.5012 18.5 52.5012 18 52.5012 17.5C52.5012 17 52.5012 16.5 52.3762 15.875L55.5012 13.625C55.8762 13.375 55.8762 13 55.7512 12.625L52.6262 7.25C52.3762 6.875 52.0012 6.75 51.6262 7L48.0012 8.625C47.1262 8 46.2512 7.5 45.2512 7L44.8762 3.125C45.0012 2.75 44.7512 2.5 44.3762 2.5H38.2512C37.8762 2.5 37.5012 2.75 37.5012 3.125L37.1262 7C36.1262 7.375 35.2512 7.875 34.3762 8.625L30.7512 7C30.3762 6.875 30.0012 7 29.7512 7.25L26.6262 12.625C26.3762 13 26.5012 13.375 26.8762 13.625L30.0012 15.875V17.5C30.0012 18 30.0012 18.5 30.1262 19.125L27.0012 21.375C26.6262 21.625 26.6262 22 26.7512 22.375L29.8762 27.75C30.1262 28.125 30.5012 28.25 30.8762 28L34.5012 26.375C35.3762 27 36.2512 27.5 37.2512 28L37.6262 31.875C37.6262 32.25 38.0012 32.5 38.3762 32.5H44.5012C44.8762 32.5 45.2512 32.25 45.2512 31.875L45.6262 28C46.6262 27.625 47.5012 27.125 48.3762 26.375L52.0012 28C52.3762 28.125 52.7512 28 53.0012 27.75L56.1262 22.375C56.3762 22 56.2512 21.625 55.8762 21.375L52.3762 19.125ZM41.2512 23.75C37.7512 23.75 35.0012 21 35.0012 17.5C35.0012 14 37.7512 11.25 41.2512 11.25C44.7512 11.25 47.5012 14 47.5012 17.5C47.5012 21 44.7512 23.75 41.2512 23.75Z" fill="#7D2166"/>
</svg>
