<svg width="56" height="55" viewBox="0 0 56 55" fill="none" xmlns="http://www.w3.org/2000/svg">
<path d="M25.25 0V5.6925C20.4103 6.30719 15.9121 8.51271 12.4624 11.9624C9.01271 15.4121 6.80719 19.9103 6.1925 24.75H0.5V30.25H6.1925C6.80719 35.0897 9.01271 39.5879 12.4624 43.0376C15.9121 46.4873 20.4103 48.6928 25.25 49.3075V55H30.75V49.3075C35.5897 48.6928 40.0879 46.4873 43.5376 43.0376C46.9873 39.5879 49.1928 35.0897 49.8075 30.25H55.5V24.75H49.8075C49.1928 19.9103 46.9873 15.4121 43.5376 11.9624C40.0879 8.51271 35.5897 6.30719 30.75 5.6925V0M25.25 11.22V16.5H30.75V11.2475C37.625 12.375 43.125 17.875 44.28 24.75H39V30.25H44.2525C43.125 37.125 37.625 42.625 30.75 43.78V38.5H25.25V43.7525C18.375 42.625 12.875 37.125 11.72 30.25H17V24.75H11.7475C12.875 17.875 18.375 12.375 25.25 11.22ZM28 24.75C27.2707 24.75 26.5712 25.0397 26.0555 25.5555C25.5397 26.0712 25.25 26.7707 25.25 27.5C25.25 28.2293 25.5397 28.9288 26.0555 29.4445C26.5712 29.9603 27.2707 30.25 28 30.25C28.7293 30.25 29.4288 29.9603 29.9445 29.4445C30.4603 28.9288 30.75 28.2293 30.75 27.5C30.75 26.7707 30.4603 26.0712 29.9445 25.5555C29.4288 25.0397 28.7293 24.75 28 24.75Z" fill="#7D2166"/>
</svg>
