<svg width="56" height="43" viewBox="0 0 56 43" fill="none" xmlns="http://www.w3.org/2000/svg">
<path d="M28 42.7769C31.3751 42.7769 34.1111 40.0409 34.1111 36.6658C34.1111 33.2907 31.3751 30.5547 28 30.5547C24.625 30.5547 21.8889 33.2907 21.8889 36.6658C21.8889 40.0409 24.625 42.7769 28 42.7769Z" fill="#7D2166"/>
<path d="M0.5 13.4484C3.94087 9.22173 8.17255 5.83659 12.9139 3.51789C17.6553 1.19918 22.7979 0 28 0C33.2021 0 38.3447 1.19918 43.0861 3.51789C47.8274 5.83659 52.0591 9.22173 55.5 13.4484L50.9167 17.7262C48.0493 14.1173 44.5229 11.2269 40.5717 9.24705C36.6205 7.26724 32.3351 6.24332 28 6.24332C23.6649 6.24332 19.3794 7.26724 15.4283 9.24705C11.4771 11.2269 7.95072 14.1173 5.08333 17.7262L0.5 13.4484ZM11.8056 23.2262C13.8133 20.7447 16.3164 18.7502 19.1399 17.382C21.9634 16.0139 25.0393 15.305 28.1528 15.305C31.2662 15.305 34.3421 16.0139 37.1656 17.382C39.9892 18.7502 42.4922 20.7447 44.5 23.2262L40.2222 27.504C38.7907 25.6126 36.9767 24.0861 34.9141 23.0372C32.8516 21.9883 30.5932 21.4437 28.3056 21.4437C26.0179 21.4437 23.7595 21.9883 21.697 23.0372C19.6344 24.0861 17.8204 25.6126 16.3889 27.504L11.8056 23.2262Z" fill="#7D2166"/>
</svg>
