<svg width="56" height="59" viewBox="0 0 56 59" fill="none" xmlns="http://www.w3.org/2000/svg">
<path d="M27.9821 0.00133476C28.9423 0.00133476 29.888 0.0636423 30.7676 0.210248C31.6339 0.323767 32.4887 0.512627 33.3222 0.774681C34.1579 1.02758 34.9752 1.34278 35.7925 1.73861C36.5878 2.11612 37.4052 2.57793 38.2225 3.08006C39.6043 3.95969 40.964 4.67073 42.3495 5.23883C45.0768 6.33043 47.9609 6.97999 50.8929 7.16303C52.381 7.26932 53.9093 7.33163 55.5 7.33163V21.9922C55.5 24.7777 55.1445 27.4166 54.4334 29.9309C53.7504 32.4093 52.7799 34.7994 51.5416 37.0523C50.3086 39.3021 48.8497 41.4205 47.1874 43.3747C45.4997 45.3733 43.6723 47.2497 41.7191 48.9897C39.7399 50.7348 37.6554 52.3566 35.4773 53.846C33.3002 55.356 31.1011 56.7598 28.902 58.0353L28.0224 58.5594L27.1428 58.0353C24.8821 56.7264 22.674 55.3289 20.5235 53.846C18.3332 52.3734 16.2476 50.7508 14.2818 48.9897C12.3297 47.2496 10.5035 45.3732 8.81703 43.3747C7.15926 41.4122 5.6938 39.295 4.44085 37.0523C3.22377 34.7893 2.25423 32.4017 1.54904 29.9309C0.833497 27.346 0.480711 24.6742 0.500813 21.9922V7.33163C2.09515 7.33163 3.62352 7.26932 5.11157 7.16303C6.57638 7.06129 8.03172 6.85181 9.46576 6.53629C10.8695 6.22109 12.2733 5.80326 13.655 5.23883C15.0888 4.66016 16.4635 3.94458 17.76 3.10205C19.3727 2.05382 21.0073 1.28047 22.62 0.771015C24.3568 0.238586 26.1657 -0.0210648 27.9821 0.00133476ZM51.8129 10.9345C49.0385 10.7998 46.2899 10.336 43.6249 9.55271C40.9741 8.76197 38.4492 7.59824 36.126 6.09647C34.921 5.30552 33.6124 4.68511 32.2373 4.2529C30.8637 3.83777 29.4353 3.63265 28.0004 3.64449C26.5549 3.63514 25.1159 3.84017 23.7305 4.2529C22.3534 4.67107 21.0464 5.29244 19.8528 6.09647C17.5256 7.60643 14.9942 8.77526 12.3356 9.56737C9.73698 10.3224 7.01744 10.7842 4.16596 10.9528V22.0105C4.16596 24.4405 4.48116 26.7642 5.11157 29.0036C5.7538 31.2236 6.63878 33.366 7.75047 35.392C8.87549 37.4391 10.2015 39.3692 11.7088 41.1536C13.2372 42.9532 14.8682 44.6282 16.6275 46.2188C18.3867 47.8132 20.2303 49.2792 22.1582 50.639C24.1044 52.0024 26.0542 53.2376 28.0004 54.3665C29.9932 53.2063 31.9362 51.9627 33.8243 50.639C35.7649 49.2835 37.6183 47.8072 39.3734 46.2188C41.1326 44.6282 42.7673 42.9532 44.2957 41.1536C45.8032 39.3693 47.1292 37.4392 48.254 35.392C49.3608 33.3685 50.2326 31.2251 50.8526 29.0036C51.5022 26.7298 51.8255 24.3753 51.8129 22.0105V10.9345Z" fill="#7D2166"/>
<path fill-rule="evenodd" clip-rule="evenodd" d="M41.6396 17.2604L40.0269 15.875L38.5389 16.0033L22.5589 34.8715L17.1161 27.1013L15.6501 26.8521L13.9531 28.0653L13.7002 29.5313L20.697 39.5225L21.4923 39.9623L23.1673 40.065L24.0249 39.6911L41.7459 18.7448L41.6396 17.2604Z" fill="#7D2166"/>
</svg>
