<svg width="39" height="39" viewBox="0 0 39 39" fill="none" xmlns="http://www.w3.org/2000/svg">
<g clip-path="url(#clip0_124_1450)">
<path d="M39.001 19.618C39.001 8.78084 30.2698 -0.00390625 19.501 -0.00390625C8.72722 -0.00146875 -0.00390625 8.78084 -0.00390625 19.6204C-0.00390625 29.4118 7.12822 37.5287 16.4492 39.001V25.29H11.5011V19.6204H16.4541V15.2938C16.4541 10.3774 19.3669 7.66203 23.8202 7.66203C25.9555 7.66203 28.1858 8.04472 28.1858 8.04472V12.871H25.7263C23.3059 12.871 22.5503 14.3847 22.5503 15.9373V19.618H27.9567L27.0938 25.2876H22.5478V38.9985C31.8688 37.5263 39.001 29.4094 39.001 19.618Z" fill="white"/>
</g>
<defs>
<clipPath id="clip0_124_1450">
<rect width="39" height="39" fill="white"/>
</clipPath>
</defs>
</svg>
