<svg width="39" height="39" viewBox="0 0 39 39" fill="none" xmlns="http://www.w3.org/2000/svg">
<g clip-path="url(#clip0_124_1448)">
<path d="M19.5 0.609375C9.07207 0.609375 0.609375 9.07207 0.609375 19.5C0.609375 29.9279 9.07207 38.3906 19.5 38.3906C29.9279 38.3906 38.3906 29.9279 38.3906 19.5C38.3906 9.07207 29.9279 0.609375 19.5 0.609375ZM14.1146 28.9453C11.6096 28.9453 9.20714 27.9502 7.4358 26.1788C5.66446 24.4075 4.66934 22.0051 4.66934 19.5C4.66934 16.9949 5.66446 14.5925 7.4358 12.8212C9.20714 11.0498 11.6096 10.0547 14.1146 10.0547C16.4988 10.0547 18.6926 10.8926 20.4369 12.515L17.8775 14.9982C16.8721 14.0156 15.4934 13.5434 14.1146 13.5434C10.8469 13.5434 8.23418 16.2475 8.23418 19.4924C8.23418 22.7373 10.8393 25.4414 14.1146 25.4414C16.5979 25.4414 19.0582 23.9865 19.4543 21.3814H14.1146V18.1365H23.0191C23.1174 18.6563 23.1659 19.1843 23.1639 19.7133C23.1639 25.1062 19.5457 28.9453 14.1146 28.9453ZM31.6494 20.8559V23.56H28.9453V20.8559H26.2412V18.1518H28.9453V15.4477H31.6494V18.1518H34.3307V20.8559H31.6494Z" fill="white"/>
</g>
<defs>
<clipPath id="clip0_124_1448">
<rect width="39" height="39" fill="white"/>
</clipPath>
</defs>
</svg>
