<svg width="38" height="38" viewBox="0 0 38 38" fill="none" xmlns="http://www.w3.org/2000/svg">
<g clip-path="url(#clip0_124_1444)">
<path d="M19.0017 0.761719C8.92792 0.761719 0.761719 8.92792 0.761719 19.0017C0.761719 29.0755 8.92792 37.2417 19.0017 37.2417C29.0755 37.2417 37.2417 29.0755 37.2417 19.0017C37.2417 8.92792 29.0755 0.761719 19.0017 0.761719ZM26.4212 15.7033C26.4288 15.8591 26.4307 16.0149 26.4307 16.1669C26.4307 20.9169 22.8188 26.3908 16.2106 26.3908C14.258 26.3941 12.346 25.8333 10.7044 24.7758C10.9837 24.81 11.2706 24.8233 11.5613 24.8233C13.2447 24.8233 14.7932 24.2514 16.0225 23.2862C15.2734 23.2715 14.5475 23.0234 13.946 22.5766C13.3446 22.1298 12.8975 21.5064 12.6671 20.7934C13.2051 20.8957 13.7593 20.8743 14.2878 20.7307C13.4747 20.5663 12.7435 20.1257 12.2182 19.4837C11.6928 18.8417 11.4057 18.0377 11.4055 17.2081V17.1644C11.89 17.4323 12.4448 17.5957 13.0338 17.6147C12.2715 17.1073 11.7319 16.3278 11.5253 15.4357C11.3187 14.5435 11.4607 13.6062 11.9223 12.8153C12.8247 13.9249 13.9501 14.8326 15.2256 15.4797C16.5011 16.1268 17.8982 16.4988 19.3266 16.5716C19.145 15.8008 19.2232 14.9916 19.5489 14.2698C19.8747 13.548 20.4298 12.954 21.128 12.5802C21.8261 12.2064 22.6282 12.0738 23.4095 12.2029C24.1908 12.332 24.9076 12.7156 25.4484 13.2941C26.2524 13.135 27.0235 12.8401 27.7284 12.422C27.4604 13.2545 26.8994 13.9614 26.1495 14.4113C26.8617 14.3255 27.5572 14.1341 28.2129 13.8432C27.7312 14.565 27.1245 15.195 26.4212 15.7033Z" fill="white"/>
</g>
<defs>
<clipPath id="clip0_124_1444">
<rect width="38" height="38" fill="white"/>
</clipPath>
</defs>
</svg>
