<svg width="39" height="39" viewBox="0 0 39 39" fill="none" xmlns="http://www.w3.org/2000/svg">
<g clip-path="url(#clip0_124_1446)">
<path d="M19.5012 0.78125C9.16235 0.78125 0.78125 9.16235 0.78125 19.5012C0.78125 29.8401 9.16235 38.2212 19.5012 38.2212C29.8401 38.2212 38.2212 29.8401 38.2212 19.5012C38.2212 9.16235 29.8401 0.78125 19.5012 0.78125ZM14.9187 27.2603H11.1279V15.0611H14.9187V27.2603ZM12.9999 13.5635C11.8026 13.5635 11.0285 12.7152 11.0285 11.6661C11.0285 10.5956 11.826 9.7727 13.0487 9.7727C14.2713 9.7727 15.0201 10.5956 15.0435 11.6661C15.0435 12.7152 14.2713 13.5635 12.9999 13.5635ZM28.7637 27.2603H24.9729V20.4996C24.9729 18.926 24.423 17.8574 23.0522 17.8574C22.005 17.8574 21.383 18.5808 21.108 19.277C21.0066 19.5246 20.9813 19.8756 20.9813 20.2247V27.2583H17.1885V18.9513C17.1885 17.4284 17.1398 16.155 17.0891 15.0591H20.3826L20.5562 16.7537H20.6322C21.1314 15.9581 22.3541 14.7842 24.3996 14.7842C26.8937 14.7842 28.7637 16.4553 28.7637 20.0472V27.2603Z" fill="white"/>
</g>
<defs>
<clipPath id="clip0_124_1446">
<rect width="39" height="39" fill="white"/>
</clipPath>
</defs>
</svg>
