<svg width="50" height="50" viewBox="0 0 50 50" fill="none" xmlns="http://www.w3.org/2000/svg">
<path d="M45.8327 35.4221C45.8318 38.2712 44.8579 41.0345 43.0723 43.2547C41.2867 45.4748 38.7965 47.0186 36.0139 47.6305L34.6848 43.643C35.9019 43.4425 37.0595 42.9745 38.0739 42.2727C39.0884 41.571 39.9346 40.6529 40.5514 39.5846H35.416C34.3109 39.5846 33.2511 39.1456 32.4697 38.3642C31.6883 37.5828 31.2494 36.523 31.2494 35.418V27.0846C31.2494 25.9796 31.6883 24.9198 32.4697 24.1384C33.2511 23.357 34.3109 22.918 35.416 22.918H41.5368C41.0285 18.8907 39.0679 15.1873 36.0232 12.5027C32.9784 9.81813 29.0586 8.33688 24.9994 8.33688C20.9401 8.33688 17.0203 9.81813 13.9755 12.5027C10.9308 15.1873 8.97025 18.8907 8.46185 22.918H14.5827C15.6878 22.918 16.7476 23.357 17.529 24.1384C18.3104 24.9198 18.7493 25.9796 18.7493 27.0846V35.418C18.7493 36.523 18.3104 37.5828 17.529 38.3642C16.7476 39.1456 15.6878 39.5846 14.5827 39.5846H8.33268C7.22761 39.5846 6.16781 39.1456 5.3864 38.3642C4.605 37.5828 4.16602 36.523 4.16602 35.418V25.0013C4.16602 13.4951 13.4931 4.16797 24.9994 4.16797C36.5056 4.16797 45.8327 13.4951 45.8327 25.0013V35.4221ZM41.666 35.418V27.0846H35.416V35.418H41.666ZM8.33268 27.0846V35.418H14.5827V27.0846H8.33268Z" fill="#7D2166"/>
</svg>
