<svg width="41" height="40" viewBox="0 0 41 40" fill="none" xmlns="http://www.w3.org/2000/svg">
<g clip-path="url(#clip0_127_6617)">
<path fill-rule="evenodd" clip-rule="evenodd" d="M26.6783 18.822C26.9908 19.1345 27.1663 19.5584 27.1663 20.0003C27.1663 20.4422 26.9908 20.8661 26.6783 21.1786L17.25 30.607C17.0963 30.7662 16.9123 30.8931 16.709 30.9805C16.5057 31.0678 16.287 31.1138 16.0657 31.1157C15.8444 31.1176 15.6249 31.0755 15.4201 30.9917C15.2153 30.9079 15.0292 30.7841 14.8727 30.6276C14.7162 30.4711 14.5924 30.2851 14.5086 30.0802C14.4248 29.8754 14.3827 29.6559 14.3846 29.4346C14.3865 29.2133 14.4325 28.9946 14.5198 28.7913C14.6072 28.588 14.7342 28.404 14.8933 28.2503L23.1433 20.0003L14.8933 11.7503C14.5897 11.436 14.4217 11.015 14.4255 10.578C14.4293 10.141 14.6046 9.72295 14.9136 9.41394C15.2227 9.10492 15.6407 8.92964 16.0777 8.92584C16.5147 8.92205 16.9357 9.09004 17.25 9.39363L26.6783 18.822Z" fill="#7D2166"/>
</g>
<defs>
<clipPath id="clip0_127_6617">
<rect width="40" height="40" fill="white" transform="translate(0.5)"/>
</clipPath>
</defs>
</svg>
