<svg width="39" height="38" viewBox="0 0 39 38" fill="none" xmlns="http://www.w3.org/2000/svg">
<path d="M34.3294 27.9255C33.1405 26.7357 31.7513 25.7645 30.2254 25.0566C32.3772 23.3134 33.7499 20.6535 33.7499 17.6706C33.7499 12.4078 29.3609 8.09013 24.098 8.17088C18.9158 8.25162 14.7405 12.4742 14.7405 17.6706C14.7405 20.6535 16.118 23.3134 18.265 25.0566C16.7389 25.764 15.3496 26.7352 14.161 27.9255C11.5675 30.5237 10.0951 33.9531 10.0001 37.6105C9.99879 37.6612 10.0077 37.7116 10.0262 37.7588C10.0447 37.806 10.0725 37.8491 10.1079 37.8854C10.1434 37.9217 10.1857 37.9505 10.2324 37.9702C10.2791 37.9899 10.3293 38 10.3801 38H13.04C13.2443 38 13.4153 37.8385 13.42 37.6343C13.5103 34.8793 14.6265 32.3002 16.5883 30.3432C17.5921 29.3341 18.7862 28.534 20.1013 27.9894C21.4164 27.4447 22.8265 27.1664 24.25 27.1703C27.1427 27.1703 29.8644 28.296 31.9117 30.3432C33.8687 32.3002 34.9849 34.8793 35.0799 37.6343C35.0847 37.8385 35.2556 38 35.4599 38H38.1199C38.1706 38 38.2208 37.9899 38.2675 37.9702C38.3143 37.9505 38.3566 37.9217 38.392 37.8854C38.4274 37.8491 38.4552 37.806 38.4737 37.7588C38.4923 37.7116 38.5011 37.6612 38.4999 37.6105C38.4049 33.9531 36.9324 30.5237 34.3294 27.9255ZM24.25 23.7504C22.6255 23.7504 21.096 23.1187 19.9512 21.9692C19.3768 21.3993 18.923 20.7194 18.6169 19.9703C18.3109 19.2211 18.1589 18.418 18.17 17.6089C18.1843 16.0509 18.8065 14.5452 19.8942 13.429C21.0342 12.2605 22.559 11.6098 24.1882 11.5908C25.7985 11.5765 27.3612 12.2035 28.5107 13.3292C29.6887 14.4834 30.3347 16.0271 30.3347 17.6706C30.3347 19.295 29.7029 20.8198 28.5534 21.9692C27.9895 22.5359 27.3188 22.985 26.5801 23.2908C25.8414 23.5965 25.0494 23.7527 24.25 23.7504ZM12.3513 18.9246C12.3085 18.5113 12.2848 18.0933 12.2848 17.6706C12.2848 16.9154 12.356 16.1791 12.489 15.4619C12.5223 15.2909 12.432 15.1152 12.2753 15.0439C11.6293 14.7542 11.0356 14.3552 10.5226 13.8517C9.91807 13.2656 9.4424 12.5599 9.1259 11.7797C8.80939 10.9995 8.659 10.1619 8.68432 9.32034C8.72707 7.79564 9.33981 6.34693 10.4086 5.25446C11.5818 4.05275 13.1588 3.39726 14.8355 3.41626C16.3508 3.43051 17.8138 4.01475 18.9205 5.05022C19.2957 5.40171 19.6187 5.79119 19.8895 6.20918C19.9845 6.35643 20.1697 6.41818 20.3312 6.36118C21.1672 6.07144 22.0507 5.86719 22.958 5.7722C23.224 5.7437 23.376 5.4587 23.2572 5.22121C21.7135 2.16705 18.5595 0.0581128 14.9115 0.0011145C9.64381 -0.0796331 5.25484 4.23799 5.25484 9.49609C5.25484 12.479 6.62758 15.1389 8.77932 16.8821C7.26883 17.5803 5.87709 18.5446 4.67059 19.751C2.06761 22.3492 0.595118 25.7786 0.500119 29.4408C0.498851 29.4914 0.507743 29.5419 0.526271 29.5891C0.5448 29.6363 0.572589 29.6793 0.608002 29.7156C0.643415 29.7519 0.685736 29.7807 0.732469 29.8004C0.779203 29.8201 0.829405 29.8303 0.880116 29.8302H3.54485C3.7491 29.8302 3.9201 29.6687 3.92485 29.4645C4.0151 26.7096 5.13134 24.1304 7.09308 22.1735C8.48957 20.777 10.1996 19.808 12.0663 19.3378C12.2515 19.2903 12.375 19.1146 12.3513 18.9246Z" fill="#7D2166"/>
</svg>
