<svg width="35" height="53" viewBox="0 0 35 53" fill="none" xmlns="http://www.w3.org/2000/svg">
<path d="M6.5625 0C2.96406 0 0 2.96406 0 6.5625V45.9375C0 49.5359 2.96406 52.5 6.5625 52.5H28.4375C32.0359 52.5 35 49.5359 35 45.9375V6.5625C35 2.96406 32.0359 0 28.4375 0H6.5625ZM6.5625 4.375H28.4375C29.6516 4.375 30.625 5.34844 30.625 6.5625V45.9375C30.625 47.1516 29.6516 48.125 28.4375 48.125H6.5625C5.34844 48.125 4.375 47.1516 4.375 45.9375V6.5625C4.375 5.34844 5.34844 4.375 6.5625 4.375ZM17.5 41.5625C16.2969 41.5625 15.3125 42.5469 15.3125 43.75C15.3125 44.9531 16.2969 45.9375 17.5 45.9375C18.7031 45.9375 19.6875 44.9531 19.6875 43.75C19.6875 42.5469 18.7031 41.5625 17.5 41.5625Z" fill="#7D2166"/>
</svg>
