<svg width="39" height="38" viewBox="0 0 39 38" fill="none" xmlns="http://www.w3.org/2000/svg">
<g clip-path="url(#clip0_149_3495)">
<path d="M19.5 4.75C23.1638 4.75 26.5553 5.396 29.0918 6.50592C30.3569 7.06008 31.4811 7.75992 32.3092 8.61808C33.0771 9.40975 33.6471 10.4041 33.7373 11.5567L33.75 11.875V27.7083C33.75 28.9972 33.1468 30.0992 32.3092 30.9653C31.4811 31.8234 30.3569 32.5233 29.0918 33.0774C26.5553 34.1858 23.1638 34.8333 19.5 34.8333C15.8362 34.8333 12.4447 34.1873 9.90817 33.0774C8.64308 32.5233 7.51892 31.8234 6.69083 30.9653C5.92292 30.1736 5.35292 29.1793 5.26267 28.0266L5.25 27.7083V11.875C5.25 10.5862 5.85325 9.48417 6.69083 8.61808C7.51892 7.75992 8.64308 7.06008 9.90817 6.50592C12.4447 5.39758 15.8362 4.75 19.5 4.75ZM30.5833 24.3944C30.1034 24.682 29.6051 24.938 29.0918 25.1607C26.5553 26.2691 23.1638 26.9167 19.5 26.9167C15.8362 26.9167 12.4447 26.2707 9.90817 25.1607C9.39486 24.938 8.89663 24.682 8.41667 24.3944V27.7083C8.41667 27.949 8.52117 28.3037 8.96767 28.7644C9.4205 29.2331 10.152 29.7271 11.178 30.1768C13.2268 31.0729 16.1671 31.6667 19.5 31.6667C22.8329 31.6667 25.7732 31.0729 27.822 30.1768C28.848 29.7271 29.5795 29.2331 30.0323 28.7644C30.4788 28.3053 30.5833 27.949 30.5833 27.7083V24.3944ZM30.5833 16.4777C30.1034 16.7653 29.6051 17.0213 29.0918 17.2441C26.5553 18.3524 23.1638 19 19.5 19C15.8362 19 12.4447 18.354 9.90817 17.2441C9.39486 17.0214 8.89663 16.7654 8.41667 16.4777V19.7917C8.41667 20.0323 8.52117 20.387 8.96767 20.8477C9.4205 21.3164 10.152 21.8104 11.178 22.2601C13.2268 23.1562 16.1671 23.75 19.5 23.75C22.8329 23.75 25.7732 23.1562 27.822 22.2601C28.848 21.8104 29.5795 21.3164 30.0323 20.8477C30.4788 20.3886 30.5833 20.0323 30.5833 19.7917V16.4777ZM19.5 7.91667C16.1671 7.91667 13.2268 8.51042 11.178 9.40658C10.152 9.85625 9.4205 10.3503 8.96767 10.8189C8.52117 11.2781 8.41667 11.6343 8.41667 11.875C8.41667 12.1157 8.52117 12.4703 8.96767 12.9311C9.4205 13.3997 10.152 13.8938 11.178 14.3434C13.2268 15.2396 16.1671 15.8333 19.5 15.8333C22.8329 15.8333 25.7732 15.2396 27.822 14.3434C28.848 13.8938 29.5795 13.3997 30.0323 12.9311C30.4788 12.4719 30.5833 12.1157 30.5833 11.875C30.5833 11.6343 30.4788 11.2797 30.0323 10.8189C29.5795 10.3503 28.848 9.85625 27.822 9.40658C25.7732 8.51042 22.8329 7.91667 19.5 7.91667Z" fill="#7D2166"/>
</g>
<defs>
<clipPath id="clip0_149_3495">
<rect width="38" height="38" fill="white" transform="translate(0.5)"/>
</clipPath>
</defs>
</svg>
