<svg width="35" height="35" viewBox="0 0 35 35" fill="none" xmlns="http://www.w3.org/2000/svg">
<path d="M24.2207 6.71821e-05C18.2518 6.71821e-05 13.4416 4.81027 13.4416 10.7792C13.4416 11.0959 13.4914 11.5243 13.5265 11.9164L1.98872 23.4528C1.35849 24.079 0.858325 24.8236 0.517018 25.6438C0.175711 26.464 0 27.3437 0 28.2321C0 29.1204 0.175711 30.0001 0.517018 30.8203C0.858325 31.6405 1.35849 32.3851 1.98872 33.0113C2.61486 33.6415 3.35947 34.1417 4.17969 34.483C4.99991 34.8243 5.87953 35 6.76793 35C7.65632 35 8.53595 34.8243 9.35616 34.483C10.1764 34.1417 10.921 33.6415 11.5471 33.0113L23.0835 21.4735C23.4743 21.5085 23.9055 21.5584 24.2207 21.5584C30.1897 21.5584 34.9999 16.7482 34.9999 10.7792C35.007 9.04244 34.5721 7.33239 33.7361 5.81004L32.8939 4.25245L31.6314 5.51631L25.8201 11.2832L23.7155 9.17853L29.4823 3.36856L30.7489 2.1047L29.1899 1.26258C27.667 0.428173 25.9573 -0.00621492 24.2207 6.71821e-05ZM24.2207 2.69486C24.8756 2.69486 25.3633 2.97781 25.9454 3.11659L20.8523 8.20975L19.8821 9.17988L20.8523 10.1055L24.8944 14.1477L25.8215 15.1178L26.7889 14.1477L31.8847 9.05457C32.0235 9.63664 32.3051 10.1244 32.3051 10.7792C32.3051 15.32 28.7615 18.8636 24.2207 18.8636C23.6818 18.8636 23.2506 18.8636 22.9138 18.7787L22.1997 18.5685L21.6526 19.1169L9.65136 31.1182C7.99406 32.7755 5.5418 32.7755 3.8845 31.1182L3.84138 31.0751C2.22451 29.4178 2.23798 26.9924 3.88181 25.3486L15.8831 13.3487L16.4315 12.8017L16.2186 12.0876C16.1377 11.7507 16.135 11.3195 16.135 10.7806C16.135 6.23986 19.6787 2.69621 24.2194 2.69621L24.2207 2.69486Z" fill="#7D2166"/>
</svg>
