<svg width="35" height="44" viewBox="0 0 35 44" fill="none" xmlns="http://www.w3.org/2000/svg">
<path d="M17.5 3.88889C13.8901 3.88889 10.4281 5.32291 7.87549 7.87549C5.32291 10.4281 3.88889 13.8901 3.88889 17.5C3.88889 23.065 7.35389 28.4336 11.1572 32.5928C13.103 34.7104 15.2248 36.6593 17.5 38.4183C19.7751 36.6607 21.897 34.7131 23.8428 32.5967C27.6461 28.4336 31.1111 23.0669 31.1111 17.5C31.1111 13.8901 29.6771 10.4281 27.1245 7.87549C24.5719 5.32291 21.1099 3.88889 17.5 3.88889ZM17.5 43.1939L16.3975 42.4356L16.3917 42.4317L16.38 42.4219L16.3411 42.3947L16.1953 42.2917C15.3901 41.7064 14.6029 41.0969 13.8347 40.4639C11.8657 38.8464 10.0121 37.0934 8.28722 35.2178C4.31278 30.87 0 24.5719 0 17.5C6.91606e-08 12.8587 1.84374 8.40752 5.12563 5.12563C8.40752 1.84374 12.8587 0 17.5 0C22.1413 0 26.5925 1.84374 29.8744 5.12563C33.1563 8.40752 35 12.8587 35 17.5C35 24.5719 30.6872 30.8719 26.7128 35.2178C24.4609 37.6671 21.9903 39.9061 19.3317 41.9067C19.1101 42.0722 18.8865 42.2349 18.6608 42.3947L18.62 42.4219L18.6083 42.4317L18.6044 42.4336L17.5 43.1919V43.1939ZM17.5 13.6111C16.4686 13.6111 15.4794 14.0208 14.7501 14.7501C14.0208 15.4794 13.6111 16.4686 13.6111 17.5C13.6111 18.5314 14.0208 19.5205 14.7501 20.2499C15.4794 20.9792 16.4686 21.3889 17.5 21.3889C18.5314 21.3889 19.5205 20.9792 20.2499 20.2499C20.9792 19.5205 21.3889 18.5314 21.3889 17.5C21.3889 16.4686 20.9792 15.4794 20.2499 14.7501C19.5205 14.0208 18.5314 13.6111 17.5 13.6111ZM9.72222 17.5C9.72222 15.4372 10.5417 13.4589 12.0003 12.0003C13.4589 10.5417 15.4372 9.72222 17.5 9.72222C19.5628 9.72222 21.5411 10.5417 22.9997 12.0003C24.4583 13.4589 25.2778 15.4372 25.2778 17.5C25.2778 19.5628 24.4583 21.5411 22.9997 22.9997C21.5411 24.4583 19.5628 25.2778 17.5 25.2778C15.4372 25.2778 13.4589 24.4583 12.0003 22.9997C10.5417 21.5411 9.72222 19.5628 9.72222 17.5Z" fill="#7D2166"/>
</svg>
