<svg width="41" height="44" viewBox="0 0 41 44" fill="none" xmlns="http://www.w3.org/2000/svg">
<path d="M32.911 39.544L38.281 20.544C38.3651 20.2465 38.3791 19.9336 38.3219 19.6299C38.2646 19.3261 38.1378 19.0397 37.9513 18.7932C37.7648 18.5467 37.5236 18.3468 37.2468 18.2092C36.97 18.0715 36.6651 17.9999 36.356 18H24.875C24.7104 18 24.548 17.9629 24.3997 17.8914C24.2515 17.8199 24.1213 17.7159 24.0188 17.5871C23.9164 17.4583 23.8443 17.308 23.808 17.1475C23.7716 16.987 23.772 16.8204 23.809 16.66L24.309 14.496C24.767 12.511 24.914 10.466 24.745 8.436L24.653 7.333C24.5544 6.14969 24.0396 5.03962 23.2 4.2C22.432 3.43181 21.3903 3.00016 20.304 3H20.064C19.407 3 18.802 3.356 18.484 3.93L15.825 8.715C14.633 10.861 12.8561 12.6244 10.701 13.8L4.042 17.43C3.7263 17.6023 3.46289 17.8565 3.27951 18.1659C3.09614 18.4752 2.99958 18.8284 3 19.188V39C3 39.5304 3.21072 40.0391 3.58579 40.4142C3.96086 40.7893 4.46957 41 5 41H30.987C31.4225 40.9999 31.846 40.8576 32.1933 40.5948C32.5406 40.332 32.7925 39.9631 32.911 39.544Z" stroke="#7D2166" stroke-width="5" stroke-linecap="round" stroke-linejoin="round"/>
</svg>
