<svg width="56" height="79" viewBox="0 0 56 79" fill="none" xmlns="http://www.w3.org/2000/svg">
<path d="M28.0115 70.5337C30.1911 70.5337 31.958 68.7668 31.958 66.5872C31.958 64.4076 30.1911 62.6406 28.0115 62.6406C25.8319 62.6406 24.0649 64.4076 24.0649 66.5872C24.0649 68.7668 25.8319 70.5337 28.0115 70.5337Z" fill="#7D2166"/>
<path d="M46.6468 0H9.35186C6.87589 0.148729 4.55859 1.26839 2.90334 3.11575C1.2481 4.96312 0.388616 7.38898 0.511591 9.86638V68.5516C0.388616 71.029 1.2481 73.4548 2.90334 75.3022C4.55859 77.1496 6.87589 78.2692 9.35186 78.418H46.6468C49.1254 78.2763 51.447 77.1588 53.1037 75.3098C54.7604 73.4607 55.6174 71.0308 55.487 68.5516V9.86638C55.6174 7.38715 54.7604 4.95723 53.1037 3.10822C51.447 1.2592 49.1254 0.141634 46.6468 0ZM51.5405 68.5516C51.6682 69.9838 51.226 71.4087 50.3099 72.5169C49.3937 73.6252 48.0775 74.3275 46.6468 74.4714H9.35186C7.92405 74.3206 6.61213 73.6164 5.69733 72.5098C4.78254 71.4032 4.33769 69.9823 4.45814 68.5516V58.6852H51.5405V68.5516ZM51.5405 54.7387H4.45814V9.86638C4.33769 8.43568 4.78254 7.01473 5.69733 5.90812C6.61213 4.80152 7.92405 4.09735 9.35186 3.94655H46.6468C48.0775 4.09048 49.3937 4.79277 50.3099 5.90103C51.226 7.0093 51.6682 8.43414 51.5405 9.86638V54.7387Z" fill="#7D2166"/>
</svg>
