<svg width="56" height="55" viewBox="0 0 56 55" fill="none" xmlns="http://www.w3.org/2000/svg">
<path d="M37.4105 21.1717L24.2105 10.6955C24.0448 10.5639 23.8522 10.4884 23.6532 10.4769C23.4543 10.4654 23.2564 10.5185 23.0808 10.6304C22.9052 10.7423 22.7584 10.9089 22.6561 11.1124C22.5538 11.3159 22.4999 11.5486 22.5 11.7857V32.7381C22.4998 32.9752 22.5536 33.208 22.6558 33.4115C22.758 33.615 22.9047 33.7817 23.0802 33.8937C23.256 34.0058 23.4539 34.0588 23.653 34.0473C23.8521 34.0358 24.0448 33.9601 24.2105 33.8283L37.4105 23.3521C37.5614 23.2325 37.6851 23.0705 37.7707 22.8803C37.8563 22.6901 37.9011 22.4777 37.9011 22.2619C37.9011 22.0461 37.8563 21.8337 37.7707 21.6435C37.6851 21.4533 37.5614 21.2913 37.4105 21.1717ZM24.7 30.2926V14.2313L34.8172 22.2619L24.7 30.2926ZM52.2 0H3.8C2.92479 0 2.08542 0.413901 1.46655 1.15065C0.847678 1.8874 0.5 2.88665 0.5 3.92857V40.5952C0.5 41.6372 0.847678 42.6364 1.46655 43.3732C2.08542 44.1099 2.92479 44.5238 3.8 44.5238H52.2C53.0752 44.5238 53.9146 44.1099 54.5335 43.3732C55.1523 42.6364 55.5 41.6372 55.5 40.5952V3.92857C55.5 2.88665 55.1523 1.8874 54.5335 1.15065C53.9146 0.413901 53.0752 0 52.2 0ZM53.3 40.5952C53.3 40.9425 53.1841 41.2756 52.9778 41.5212C52.7715 41.7668 52.4917 41.9048 52.2 41.9048H3.8C3.50826 41.9048 3.22847 41.7668 3.02218 41.5212C2.81589 41.2756 2.7 40.9425 2.7 40.5952V3.92857C2.7 3.58126 2.81589 3.24818 3.02218 3.0026C3.22847 2.75702 3.50826 2.61905 3.8 2.61905H52.2C52.4917 2.61905 52.7715 2.75702 52.9778 3.0026C53.1841 3.24818 53.3 3.58126 53.3 3.92857V40.5952ZM55.5 53.6905C55.5 54.0378 55.3841 54.3709 55.1778 54.6165C54.9715 54.862 54.6917 55 54.4 55H1.6C1.30826 55 1.02847 54.862 0.822183 54.6165C0.615893 54.3709 0.5 54.0378 0.5 53.6905C0.5 53.3432 0.615893 53.0101 0.822183 52.7645C1.02847 52.5189 1.30826 52.381 1.6 52.381H54.4C54.6917 52.381 54.9715 52.5189 55.1778 52.7645C55.3841 53.0101 55.5 53.3432 55.5 53.6905Z" fill="#7D2166"/>
</svg>
