<svg width="60" height="50" viewBox="0 0 60 50" fill="none" xmlns="http://www.w3.org/2000/svg">
<path d="M29.9998 47.3952C33.0608 47.3952 35.5421 44.9138 35.5421 41.8529C35.5421 38.7919 33.0608 36.3105 29.9998 36.3105C26.9389 36.3105 24.4575 38.7919 24.4575 41.8529C24.4575 44.9138 26.9389 47.3952 29.9998 47.3952Z" stroke="#7D2166" stroke-width="5" stroke-linecap="round" stroke-linejoin="round"/>
<path d="M19.5499 29.4134C20.9257 28.0011 22.5703 26.8785 24.3869 26.1121C26.2035 25.3456 28.1552 24.9507 30.1268 24.9507C32.0985 24.9507 34.0502 25.3456 35.8668 26.1121C37.6833 26.8785 39.328 28.0011 40.7038 29.4134M10.3691 22.2634C12.9445 19.6731 16.0065 17.6174 19.3791 16.2147C22.7517 14.812 26.3684 14.0898 30.0211 14.0898C33.6738 14.0898 37.2904 14.812 40.663 16.2147C44.0356 17.6174 47.0977 19.6731 49.673 22.2634" stroke="#7D2166" stroke-width="5" stroke-linecap="round" stroke-linejoin="round"/>
<path d="M2.5 14.3951C6.11068 10.7825 10.3978 7.91676 15.1163 5.96156C19.8349 4.00635 24.8924 3 30 3C35.1076 3 40.1651 4.00635 44.8837 5.96156C49.6022 7.91676 53.8893 10.7825 57.5 14.3951" stroke="#7D2166" stroke-width="5" stroke-linecap="round" stroke-linejoin="round"/>
</svg>
